<svg width="256" height="256" viewBox="0 0 256 256" fill="none" xmlns="http://www.w3.org/2000/svg">
  <rect width="256" height="256" rx="72" fill="#0B100A"/>
  <rect x="20" y="20" width="216" height="216" rx="56" fill="url(#paint0_linear_1_2)"/>
  <path d="M74 138.5C74 104.534 101.534 77 135.5 77H161C170.389 77 178 84.6112 178 94V94C178 103.389 170.389 111 161 111H137C122.088 111 110 123.088 110 138V138C110 152.912 122.088 165 137 165H160C170.493 165 179 173.507 179 184V184C179 194.493 170.493 203 160 203H135.5C101.534 203 74 175.466 74 141.5V138.5Z" fill="#101507"/>
  <path d="M144 77H168.5C191.42 77 210 95.5802 210 118.5V160.5C210 183.42 191.42 202 168.5 202H144V168H166C172.627 168 178 162.627 178 156V123C178 116.373 172.627 111 166 111H144V77Z" fill="#101507"/>
  <defs>
    <linearGradient id="paint0_linear_1_2" x1="46" y1="32" x2="205" y2="225" gradientUnits="userSpaceOnUse">
      <stop stop-color="#E7FF9E"/>
      <stop offset="1" stop-color="#B9FF20"/>
    </linearGradient>
  </defs>
</svg>
