<svg width="96" height="96" viewBox="0 0 96 96" fill="none" xmlns="http://www.w3.org/2000/svg">
  <rect width="96" height="96" rx="28" fill="#0D1710"/>
  <rect x="8" y="8" width="80" height="80" rx="24" fill="url(#paint0_linear_201_1)"/>
  <path d="M48 20L66 28V45C66 58.4 57.6 70.58 48 76C38.4 70.58 30 58.4 30 45V28L48 20Z" fill="#0D1710" fill-opacity="0.86"/>
  <path d="M41 42.8V58H35.8V35.2H45.2C47.7867 35.2 49.7933 35.82 51.22 37.06C52.66 38.3 53.38 40.0133 53.38 42.2C53.38 44.4 52.6533 46.1133 51.2 47.34C49.76 48.5533 47.76 49.16 45.2 49.16H41V42.8ZM41 39.38V45.02H44.5C45.74 45.02 46.6867 44.7733 47.34 44.28C47.9933 43.7733 48.32 43.08 48.32 42.2C48.32 41.3067 47.9933 40.6067 47.34 40.1C46.6867 39.62 45.74 39.38 44.5 39.38H41Z" fill="white"/>
  <defs>
    <linearGradient id="paint0_linear_201_1" x1="18" y1="10" x2="76" y2="86" gradientUnits="userSpaceOnUse">
      <stop stop-color="#D8FF67"/>
      <stop offset="1" stop-color="#6BFF8E"/>
    </linearGradient>
  </defs>
</svg>
